<svg width="458" height="352" viewBox="0 0 458 352" fill="none" xmlns="http://www.w3.org/2000/svg">
<path d="M152.3 56.1L149.5 61H146.8L145.9 62.4H148.7L142.6 72.8C141.3 75 142.2 77 144.7 77C146.5 77 148.4 75.7 150.3 73.9C150.3 77.7 155.6 78.4 158.9 74.4H159.6C161.4 74.4 164.2 73.3 165.8 71.5C165.6 71.1 165.1 70.6 164.7 70.5L164.5 70.7C163.1 72.2 161.5 72.9 159.9 72.9L162.7 68.1C164.5 65 162.8 62 160 62C157.7 62 155.9 62.9 154.1 65.9L152.6 68.5L151.4 70.6L151.2 70.8C149 73.3 146.9 75.3 145.6 75.3C144.9 75.3 144.6 74.8 145.3 73.7L151.8 62.5H154.3L155 61H152.5L155.3 56.1H152.3ZM159.8 63.9C160.8 64 161.2 65.2 160.2 66.9L158 70.6H157.9C156.9 70.6 156.1 71.4 156.1 72.4C156.1 72.8 156.2 73.1 156.4 73.4V73.5C155 75.9 151.5 75.5 153.3 72.4L155.6 68.5L157.1 66.1C158 64.5 159.1 63.9 159.8 63.9ZM181.8 56.1L179 61H176.3L175.4 62.4H178.2L172 72.8C170.7 75 171.6 77 174.1 77C175.3 77 176.6 76.4 178 75.4L177.2 76.7H180.2L184.8 68.8C189.4 63 191.5 63.8 190.2 66L186.3 72.7C185 74.9 185.9 76.9 188.4 76.9C190.2 76.9 192.2 75.5 194.1 73.7C194.2 75.6 195.8 76.9 198.2 76.9C201.6 76.9 205 74.3 207.5 71.4C207.3 71 206.8 70.5 206.4 70.4L206.2 70.6C204 73.1 201.2 75.1 199.1 75.1C197.2 75.1 196.1 74 197.5 71.5L197.8 71C199.7 71.8 203.4 71.4 205.7 67.6L206.1 66.9C207.7 64.1 206.2 62.1 203.7 62.1C201.3 62.1 199.3 63.4 198 65.5L195.1 70.5L194.9 70.7C192.7 73.2 190.6 75.2 189.3 75.2C188.6 75.2 188.3 74.7 188.9 73.6L193.3 66.1C194.6 63.8 193.4 62.2 191.7 62.2C190.4 62.2 189 62.9 187.5 64.5L192.3 56.2H189.3L180.9 70.6L180.7 70.8C178.5 73.3 176.4 75.3 175.1 75.3C174.4 75.3 174.1 74.8 174.8 73.7L181.3 62.5H183.8L184.7 61.1H182.2L185 56.2L181.8 56.1ZM203.1 64.3C204.1 64.2 204.6 65.2 203.6 66.9L203.2 67.6C201.8 70 199.8 70 198.7 69.6L200.6 66.2C201.3 65 202.3 64.4 203.1 64.3ZM247.4 58.9C245.7 60.4 245.5 62.1 246.6 63.5L246.9 63.8C245.6 65.7 243.8 68.2 241.8 70.5L241.6 70.7C240.2 72.2 238.6 72.9 237 72.9L239.8 68.1C241.6 65 239.9 62 237.1 62C234.8 62 233 62.9 231.2 65.9L229.7 68.5L228.5 70.6L228.3 70.8C225.8 73.6 223.7 75.5 221.3 76.5L228.1 65.1H226.3C226.3 63.9 225 62.2 223.1 62.2C221.5 62.2 219.2 63.5 217.9 65.6L213.7 72.8C212.4 75 213.3 77 215.8 77C216.6 77 217.7 76.6 218.7 76L217.9 77.4C213.8 78.6 211.3 80.3 211.3 82.5C211.3 85.4 215.7 86 217.9 82.3L220.2 78.4C222.6 77.7 225 76.3 227.4 73.9C227.4 77.7 232.7 78.5 236 74.4H236.7C238.5 74.4 241.3 73.3 242.9 71.5C244.3 69.8 245.5 68.3 247.9 65.1L248.3 65.6C248.7 66.1 248.8 66.7 248.5 67.3L245.3 72.8C244 75 244.9 77 247.4 77C248.9 77 250.6 76 252.2 74.6C252.1 76 253.1 77 254.8 77C255.6 77 256.7 76.6 257.7 76L256.9 77.4C252.8 78.6 250.3 80.3 250.3 82.5C250.3 85.4 254.7 86 256.9 82.3L259.2 78.4C261.7 77.6 264.1 76.2 266.6 73.8C266.7 75.7 268.3 77 270.7 77C273.2 77 275.6 75.6 277.7 73.8C277.6 77.7 283 78.5 286.3 74.4H287C287.9 74.4 289.2 74.1 290.4 73.5C289.6 75.6 290.3 77 292.1 77C293.8 77 295.6 75.5 297.1 74.1C296.8 75.7 297.8 77 299.7 77C302.2 77 305.1 74.4 307.6 71.5C309.3 69.5 310.8 67.5 311.9 66.1C310.7 69.2 311.3 74.8 308.5 74.8C307.5 74.8 307.1 73.7 307.1 73.7L305.2 74.7C305.2 74.7 305.8 77.1 308.5 77.1C308.8 77.1 309.1 77.1 309.3 77H309.4C312.5 76.6 315.5 74.2 317.8 71.6C317.6 71.1 317.1 70.7 316.7 70.6L316.5 70.8C315.4 72 314.2 73.1 312.9 74C313.9 71.2 313.7 66.8 315.5 63L313.2 61.8C312 63.5 309.2 67.4 306.5 70.5L306.3 70.7C304.1 73.2 302 75.2 300.7 75.2C300 75.2 299.7 74.7 300.4 73.6L306.8 62.4H303.8L298.4 71.7C296.1 73.8 294.3 74.9 293.8 74.7C293 74.4 293.8 73.3 294.2 72.6L300.1 62.4H297.1L292.4 70.5L292.2 70.7C290.8 72.2 289.2 72.9 287.6 72.9L290.4 68.1C292.2 65 290.5 62 287.7 62C285.4 62 283.6 62.9 281.8 65.9L280.3 68.5L279.1 70.6L278.9 70.8C276.7 73.3 273.9 75.3 271.8 75.3C269.9 75.3 268.8 74.2 270.2 71.7L270.5 71.2C272.4 72 276.1 71.6 278.4 67.8L278.8 67.1C280.4 64.3 278.9 62.3 276.4 62.3C274 62.3 272 63.6 270.7 65.7L267.8 70.7L267.6 70.9C265.1 73.7 263 75.6 260.6 76.6L267.4 65.2H265.6C265.6 64 264.3 62.3 262.4 62.3C260.8 62.3 258.5 63.6 257.2 65.7L254.3 70.6L254.1 70.8C251.9 73.3 249.8 75.3 248.5 75.3C247.8 75.3 247.5 74.8 248.2 73.7L251.2 68.5C252.2 66.7 251.8 65.6 250.8 64.5L249.1 62.5C248.7 62 248.7 61.4 249.3 60.8L247.4 58.9ZM237.1 63.9C238.1 64 238.6 65.2 237.5 66.9L235.3 70.6H235.2C234.2 70.6 233.4 71.4 233.4 72.4C233.4 72.8 233.5 73.1 233.7 73.4V73.5C232.3 75.9 228.8 75.5 230.6 72.4L232.9 68.5L234.4 66.1C235.3 64.5 236.3 63.9 237.1 63.9ZM287.3 63.9C288.3 64 288.8 65.2 287.7 66.9L285.5 70.6H285.4C284.4 70.6 283.6 71.4 283.6 72.4C283.6 72.8 283.7 73.1 283.9 73.4V73.5C282.5 75.9 279 75.5 280.8 72.4L283.1 68.5L284.6 66.1C285.4 64.5 286.5 63.9 287.3 63.9ZM275.6 64.3C276.6 64.2 277.1 65.2 276.1 66.9L275.7 67.6C274.2 70 272.3 70 271.2 69.6L273.1 66.2C273.8 65 274.8 64.4 275.6 64.3ZM223.2 64.5C224.2 64.5 224.9 65.4 224 66.9L221.7 70.9C219.9 73.8 218 75.2 216.8 75.2C216.1 75.2 215.8 74.7 216.5 73.6L220.7 66.3C221.4 65.1 222.4 64.5 223.2 64.5ZM262.1 64.5C263.1 64.5 263.8 65.4 262.9 66.9L260.6 70.9C258.8 73.8 256.9 75.2 255.7 75.2C255 75.2 254.7 74.7 255.4 73.6L259.6 66.3C260.3 65.1 261.3 64.5 262.1 64.5ZM216.8 79.4L215.4 81.8C214.8 82.9 213.7 82.7 213.7 81.9C213.7 81.2 214.5 80.3 216.8 79.4ZM255.7 79.4L254.3 81.8C253.7 82.9 252.6 82.7 252.6 81.9C252.7 81.2 253.4 80.3 255.7 79.4ZM101 67.8H129.9V69.7H101V67.8ZM328.1 67.8H357V69.7H328.1V67.8Z" fill="#766458"/>
<path d="M322.7 37.4V45.1H301.9V0.400002H322.7V8H309.5V18.8H320V26.5H309.5V37.4H322.7ZM289.9 0.400002H297.5V45.1H289.9V23.1L286.9 34.5H279.5L276.5 23.1V45.1H268.9V0.400002H276.5L283.3 22L289.9 0.400002ZM258 8H252.5V37.3H258V8ZM261 0.400002C263.5 0.400002 265.7 2.5 265.7 5.1V40.4C265.7 43 263.5 45.1 261 45.1H249.6C247 45.1 244.9 42.9 244.9 40.4V5.1C244.9 2.5 247 0.400002 249.6 0.400002H261ZM233 28.6L240.7 26.8V40.4C240.7 43 238.5 45.1 236 45.1H224.6C222 45.1 219.9 42.9 219.9 40.4V5.1C219.9 2.5 222 0.400002 224.6 0.400002H236C238.5 0.400002 240.7 2.5 240.7 5.1V14.2L233 16V8H227.5V37.3H233V28.6ZM216.2 37.4V45.1H198V0.400002H205.6V37.4H216.2ZM194.8 37.4V45.1H174V0.400002H194.8V8H181.6V18.8H192.1V26.5H181.6V37.4H194.8ZM162.6 0.400002H170.3L169 45.1H154.5L152.5 26.6L150.5 45.1H136L135 0.400002H142.6L143.2 37.4H144L148.8 0.400002H156.4L161.3 37.4H162.1L162.6 0.400002Z" fill="#81B3D3"/>
<path d="M380.4 214.7L405.8 140.7H431L456.7 214.7H436.5L432.8 201.3H404.2L400.4 214.7H380.4ZM416.1 162.6L408.6 187.1H428.7L421.2 162.6C420.8 161.4 420.4 160.2 420 159C419.7 157.7 419.4 156.5 419.2 155.2C419 154.7 418.9 154.3 418.9 153.9C418.8 153.4 418.7 153 418.7 152.6C418.6 153 418.5 153.4 418.4 153.9C418.3 154.3 418.2 154.7 418.2 155.2C418.1 155.4 418.1 155.5 418.1 155.7C418.1 155.8 418.1 155.9 418 156C417.8 157.1 417.5 158.3 417.2 159.4C416.7 160.4 416.4 161.5 416.1 162.6ZM298.4 214.7V140.7H317.9L345.8 178.7C346.5 179.8 347.2 181 347.8 182.2C348.5 183.4 349.2 184.6 349.8 185.8L351.2 188.8C351.7 189.8 352.1 190.8 352.6 191.7C352.5 190.9 352.4 190.1 352.3 189.3C352.2 188.5 352.1 187.7 352.1 186.9C351.9 185.3 351.8 183.7 351.8 182.1C351.7 180.4 351.7 178.8 351.7 177.1V140.8H371.1V214.8H351.7L323.6 176.6C322.8 175.7 322.1 174.6 321.4 173.3C320.7 172 320 170.6 319.4 169.2C319 168.2 318.5 167.3 318 166.3C317.6 165.4 317.3 164.4 316.8 163.5C317.2 165.9 317.5 168.3 317.7 170.8C317.9 173.3 318 175.8 318 178.2V214.7H298.4ZM210.4 159.8C214 153.2 218.9 148.2 225.3 144.7C231.7 141.2 238.3 139.5 245.2 139.5C246.1 139.5 247.1 139.5 248 139.6C249 139.7 250 139.8 250.9 139.8C253.8 140.2 256.6 140.9 259.4 141.9C262.3 142.9 265 144.2 267.5 145.8C273 149.4 277.3 154.1 280.3 160.1C283.3 166 284.8 172.1 284.8 178.6C284.8 179.4 284.8 180.2 284.7 181C284.7 181.8 284.6 182.5 284.5 183.3C284.3 185 284 186.6 283.6 188.2C283.2 189.8 282.7 191.3 282.1 192.8C278.8 200.3 273.8 206.2 266.9 210.3C260 214.4 252.8 216.5 245.2 216.5C244.7 216.5 244.1 216.5 243.6 216.4H242.1C239.4 216.2 236.8 215.7 234.2 215C231.6 214.3 229.1 213.3 226.8 212.1C220.3 208.7 215.2 203.9 211.5 197.6C207.8 191.3 205.9 184.7 205.9 177.9C205.9 176.9 205.9 175.9 206 174.9C206.1 173.9 206.2 172.8 206.5 171.8C206.9 169.8 207.4 167.7 208.1 165.8C208.5 163.6 209.4 161.7 210.4 159.8ZM263.2 186.4C263.4 185.6 263.6 184.8 263.8 184C264 183.1 264.2 182.3 264.3 181.4C264.4 180.9 264.4 180.3 264.4 179.8C264.5 179.3 264.5 178.8 264.5 178.3C264.5 177.8 264.5 177.4 264.4 176.9V175.5C264 172.2 263 169 261.4 165.9C259.8 162.8 257.5 160.4 254.7 158.7C253.9 158.3 253.2 158 252.4 157.7C251.6 157.4 250.9 157.1 250.1 156.9C249.3 156.7 248.6 156.6 247.8 156.6C247 156.4 246.3 156.4 245.5 156.4C241.6 156.4 237.9 157.6 234.6 160.1C231.3 162.6 228.9 165.9 227.6 170L227.4 170.5V171C227.2 171.7 227 172.5 226.8 173.2C226.6 173.9 226.5 174.6 226.3 175.4L226.1 177V179.4C226.1 179.6 226.1 179.9 226.2 180.2C226.4 184.3 227.7 188.2 229.9 191.9C232.2 195.5 235.4 197.9 239.4 199.1L240.8 199.6C241.3 199.7 241.8 199.8 242.3 199.8L243.7 200H245.1C249.2 200 252.9 198.8 256.1 196.4C259.4 193.8 261.8 190.5 263.2 186.4ZM181.1 207.8C177.5 210.3 173.5 212 169.3 212.9C165.1 213.8 160.7 214.4 156.4 214.6C155.2 214.7 153.9 214.7 152.7 214.7H128.9V140.7H154C155.2 140.7 156.4 140.7 157.6 140.8C161.8 141 165.9 141.6 169.9 142.5C174 143.4 177.8 145.2 181.2 147.6C185.5 150.6 188.9 154.6 191.3 159.6C193.7 164.6 195.1 169.7 195.4 174.9C195.5 175.4 195.5 175.8 195.5 176.3V179.2C195.3 184.7 194 190 191.6 195.1C189.2 200.2 185.6 204.5 181.1 207.8ZM148.7 198.1C148.9 198.1 149.2 198.1 149.4 198.2H150.2C150.5 198.2 150.8 198.2 151 198.3H154.1C155 198.2 155.8 198.1 156.5 198.1C158.5 197.9 160.5 197.6 162.4 197.1C164.3 196.6 166.1 195.7 167.6 194.7C170.1 192.9 171.9 190.5 173.1 187.5C174.3 184.4 175 181.2 175 177.9V177C175 176.7 175 176.4 174.9 176.1C174.7 173.2 174 170.3 172.8 167.6C171.6 164.8 169.9 162.6 167.7 161C166.1 159.7 164.2 158.8 162.2 158.3C160.2 157.8 158.2 157.6 156.2 157.5H148.7V198.1ZM68.8 214.7V140.7H114.2V156.8H88.6V169.8H112.6V185.6H88.6V198.1H114.1V214.7H68.8ZM9.4 190.9C9.5 191 9.5 191.1 9.5 191.1C9.6 191.1 9.7 191.1 9.7 191.2C11.8 193.5 14.2 195.7 16.8 197.7C19.4 199.6 22.5 200.7 25.9 200.8C26 200.8 26.1 200.8 26.1 200.9H26.4C26.5 200.9 26.6 200.9 26.6 201H27.9C28.3 200.9 28.6 200.8 28.9 200.8C30.1 200.6 31.3 200.1 32.4 199.4C33.6 198.7 34.5 197.9 35.1 196.8L35.3 196.3L35.5 195.8C35.7 195.3 35.8 194.8 35.8 194.3C35.9 193.8 35.9 193.4 35.9 193C35.9 190.9 35 189.2 33.1 187.8C31.4 186.4 29.4 185.2 27.3 184.4C26.5 184.1 25.7 183.9 24.9 183.7C24.2 183.5 23.4 183.3 22.7 183.1H22.5C22.4 183 22.3 183 22.3 183C18.5 182.1 14.9 180.6 11.6 178.6C8.3 176.5 6 173.5 4.7 169.7C4.5 168.9 4.2 168.1 4 167.3C3.8 166.4 3.7 165.5 3.7 164.6C3.7 164.5 3.7 164.2 3.7 164V161.2C3.8 160.6 3.9 160 4 159.3C4.2 157.7 4.6 156.2 5.2 154.7C5.7 153.2 6.4 151.8 7.3 150.5C9.8 146.4 13 143.5 16.8 141.7C20.7 139.9 24.9 139 29.1 139C30.1 139 31.1 139.1 32.1 139.2C33.2 139.3 34.3 139.4 35.4 139.5C38.2 140 41 140.8 43.6 141.8C46.4 142.9 48.9 144.2 51.3 145.6L44.9 159.9C42.8 158.4 40.6 157 38.3 155.8C36 154.6 33.5 154.1 30.8 154.1H29.9C28.1 154.3 26.5 155.1 24.9 156.5C23.4 157.8 22.6 159.2 22.6 160.8V161.5C22.7 161.7 22.8 162 22.9 162.2C23.1 162.7 23.3 163.2 23.7 163.7C24.1 164.2 24.5 164.6 25 165C25.9 165.7 27.1 166.4 28.7 167C30.3 167.5 32 168.1 33.8 168.6C35.3 169 36.7 169.4 38.1 169.8C39.5 170.1 40.7 170.4 41.6 170.7C45.9 172.2 49.2 174.8 51.4 178.5C53.6 182.1 54.7 185.9 54.8 189.9V190.5C54.8 191 54.8 191.4 54.7 191.9V193.2C54.2 197.2 52.9 201.1 50.8 204.7C48.7 208.3 45.9 211.1 42.3 213.1C41 213.7 39.6 214.3 38.2 214.7C36.8 215.1 35.4 215.4 34 215.7C32.9 215.9 31.7 216.1 30.5 216.2C29.4 216.4 28.3 216.4 27.1 216.4H25.7C21.1 216.2 16.5 215.2 12 213.4C7.5 211.5 3.5 208.9 0 205.7L9.4 190.9ZM351 338C351 337.7 351.1 337.4 351.2 337.1C351.3 336.8 351.5 336.5 351.7 336.3C351.9 336.1 352.2 335.9 352.5 335.7C352.8 335.6 353.2 335.5 353.6 335.5C354.1 335.5 354.5 335.6 354.9 335.8C355.3 336 355.7 336.2 356 336.5C356.2 336.8 356.4 337.1 356.6 337.5C356.7 337.9 356.8 338.3 356.8 338.8C356.8 339.7 356.6 340.4 356.3 341.2C356 341.9 355.6 342.6 355 343.1C354.7 343.4 354.5 343.6 354.2 343.8C353.9 344 353.6 344.2 353.3 344.3C353 344.4 352.8 344.6 352.6 344.7C352.5 344.8 352.4 344.8 352.2 344.9L350.8 342.9C351 342.8 351.3 342.7 351.6 342.5C351.9 342.4 352.2 342.2 352.5 342C352.8 341.8 353 341.5 353.2 341.2C353.4 340.9 353.5 340.6 353.5 340.2C352.9 340.2 352.3 340 351.8 339.6C351.2 339.3 351 338.8 351 338ZM358.8 338C358.8 337.7 358.9 337.4 359 337.1C359.1 336.8 359.3 336.5 359.5 336.3C359.7 336.1 360 335.9 360.3 335.7C360.6 335.6 361 335.5 361.4 335.5C361.9 335.5 362.3 335.6 362.7 335.8C363.1 336 363.5 336.2 363.8 336.5C364 336.8 364.2 337.1 364.4 337.5C364.5 337.9 364.6 338.3 364.6 338.8C364.6 339.6 364.5 340.4 364.1 341.2C363.8 341.9 363.4 342.6 362.8 343.1C362.5 343.4 362.3 343.6 362 343.8C361.7 344 361.4 344.2 361.1 344.3C360.8 344.4 360.6 344.6 360.4 344.7C360.3 344.8 360.2 344.8 360 344.9L358.7 342.9C358.9 342.8 359.2 342.7 359.5 342.5C359.8 342.4 360.1 342.2 360.4 342C360.7 341.8 360.9 341.5 361.1 341.2C361.3 340.9 361.4 340.6 361.4 340.2C360.8 340.2 360.2 340 359.7 339.6C359 339.3 358.8 338.8 358.8 338ZM94.2 279.3C94.2 279.6 94.1 279.9 94 280.2C93.9 280.5 93.7 280.8 93.5 281C93 281.5 92.3 281.8 91.6 281.8C91.2 281.8 90.7 281.7 90.3 281.5C89.9 281.3 89.5 281.1 89.2 280.8C88.9 280.5 88.7 280.1 88.6 279.8C88.5 279.4 88.4 279 88.4 278.5C88.4 277.6 88.6 276.9 88.9 276.1C89.2 275.4 89.6 274.7 90.2 274.2C90.5 273.9 90.7 273.7 91 273.5C91.3 273.3 91.6 273.1 91.9 273C92.2 272.9 92.4 272.7 92.6 272.6C92.8 272.5 92.9 272.5 93 272.4L94.3 274.4C94 274.5 93.7 274.6 93.5 274.8C93.2 274.9 92.9 275.1 92.6 275.3C92.3 275.5 92.1 275.8 91.9 276.1C91.7 276.4 91.6 276.7 91.6 277.1C92.3 277.1 92.8 277.3 93.3 277.7C94 278.1 94.2 278.6 94.2 279.3ZM86.4 279.3C86.4 279.9 86.2 280.5 85.7 281C85.5 281.2 85.2 281.4 84.9 281.6C84.6 281.7 84.2 281.8 83.8 281.8C83.4 281.8 82.9 281.7 82.5 281.5C82.1 281.3 81.7 281.1 81.4 280.8C81.1 280.5 80.9 280.1 80.8 279.8C80.7 279.4 80.6 279 80.6 278.5C80.6 277.6 80.8 276.9 81.1 276.1C81.4 275.4 81.8 274.7 82.4 274.2C82.6 274 82.9 273.7 83.2 273.5C83.5 273.3 83.8 273.1 84.1 273C84.4 272.9 84.6 272.7 84.8 272.6C85 272.5 85.1 272.5 85.2 272.4L86.5 274.4C86.3 274.5 86 274.6 85.7 274.8C85.4 274.9 85.1 275.1 84.8 275.3C84.5 275.5 84.3 275.8 84.1 276.1C83.9 276.4 83.8 276.7 83.8 277.1C84.5 277.1 85 277.3 85.5 277.7C86.1 278.1 86.4 278.6 86.4 279.3ZM331.7 336.2H335.5L347.3 315.6H343.5L331.7 336.2ZM331.6 337.7C330.4 337.7 329.4 338.7 329.4 339.9C329.4 341.1 330.3 342.1 331.6 342.1C332.8 342.1 333.8 341.2 333.8 339.9C333.8 338.6 332.8 337.7 331.6 337.7ZM305.2 332.2L306.3 330.3C310.7 324.2 313.6 325.9 312.3 328.2L310.5 331.3C309.4 333.2 306 334.6 305.2 332.2ZM330.3 335.1C330.1 334.5 329.4 333.9 328.9 333.8L328.6 334.1C327.3 335.7 325.7 337 324.1 338.2C325.3 334.6 325 329.1 327.4 324.2L324.6 322.7C323 324.8 319.6 329.8 316.2 333.8L315.9 334.1C313.2 337.3 310.5 339.8 308.9 339.8C308.1 339.8 307.3 339 307.3 337.3V335.7C310 336 312.8 334.3 314.5 331.2L315.5 329.5C319 323.5 313.3 321.5 309.4 325L314.8 315.7H311L300.2 334.4C300 334.2 299.8 334.1 299.5 333.9L299.2 334.2C296.5 337.4 293 339.9 290.3 339.9C288 339.9 286.6 338.4 288.3 335.4L292.2 328.6C294.4 324.9 298.2 325.5 296 329.4L295.5 330.3H298.6L299.1 329.4C301.1 325.9 299.2 323.3 296.1 323.3C293 323.3 290.6 324.9 289 327.7L285.3 334.1C285.2 334.1 285.1 334 285.1 334L284.8 334.3C282.1 337.5 279.4 340 277.8 340C277 340 276.5 339.4 277.4 337.9L285.5 323.8H281.7L275 335.5C272.1 338.1 269.9 339.6 269.2 339.2C268.3 338.8 269.2 337.4 269.7 336.6L277.1 323.7H273.3L266 336.4C265.2 337.1 263.6 337.8 262.8 338.3C264 334.7 263.7 329.2 266.1 324.3L263.3 322.8C261.7 324.9 253 336.5 249.6 340.5C249.9 341 250.5 341.4 251 341.8C253.1 339.3 260.3 330.1 261.7 328.3C260.2 332.2 261 339.3 257.4 339.3C256.1 339.3 255.6 337.9 255.6 337.9L253.2 339.1C253.2 339.1 253.9 342.1 257.3 342.1C257.7 342.1 258 342.1 258.4 342H258.5C260.4 341.7 263.1 340.9 264.9 339.6C264.9 341.1 265.8 342.1 267.4 342.1C269.5 342.1 271.8 340.2 273.6 338.5C273.2 340.5 274.4 342.1 276.8 342.1C279.1 342.1 281.8 340.2 284.2 337.7C284.2 340.2 286.2 342.1 289.3 342.1C292.4 342.1 295.4 340.4 298 338.1L295.9 341.8H299.7L304 334.3V337.3C304 340.5 304.6 342.2 307.7 342.2C310.8 342.2 314.4 338.9 317.5 335.2C319.6 332.7 321.5 330.1 322.9 328.3C321.4 332.2 322.2 339.3 318.6 339.3C317.3 339.3 316.8 337.9 316.8 337.9L314.4 339.1C314.4 339.1 315.1 342.1 318.5 342.1C318.9 342.1 319.2 342.1 319.6 342H319.7C323.7 341.5 327.5 338.4 330.3 335.1ZM215.7 334H215.5C214.3 334 213.3 335 213.3 336.3C213.3 336.8 213.4 337.2 213.7 337.6V337.7C211.9 340.7 207.6 340.2 209.8 336.2L212.7 331.2L214.5 328.1C217.2 323.6 220.8 325.4 218.5 329.3L215.7 334ZM190.3 348.2C189.5 349.6 188.2 349.4 188.2 348.4C188.2 347.4 189.1 346.3 192 345.2L190.3 348.2ZM161.5 334.4C159.2 338 157 339.7 155.4 339.7C154.6 339.7 154.1 339.1 155 337.6L160.3 328.4C162.3 324.9 166.4 325.8 164.5 329.2L161.5 334.4ZM149.5 319.7C150.6 317.8 151.9 316.9 152.9 316.9C154.3 316.9 155 317.8 155 319.2C155 322.7 150.6 330 144.8 329.1H144L149.5 319.7ZM242.3 333.8L242 334.1C239.3 337.3 236.6 339.8 235 339.8C234.2 339.8 233.7 339.2 234.6 337.7L240 328.1C241.6 325.2 240.1 323.2 238 323.2C236.4 323.2 234.7 324.1 232.8 326L234.2 323.5H230.4L224.3 334C224.1 333.9 224 333.8 223.8 333.7L223.5 334C221.8 335.9 219.7 336.8 217.8 336.8L221.4 330.7C223.7 326.7 221.6 323 218 323C215.1 323 212.8 324.2 210.7 327.9L208.8 331.1L207.2 333.9C207.1 333.8 207 333.8 206.9 333.7L206.6 334C203.5 337.6 200.8 339.9 197.8 341.2L208.2 323.5H204.4L197.7 335.1C194.8 337.8 192.5 339.3 191.8 339C190.9 338.6 191.8 337.2 192.3 336.4L199.7 323.5H195.9L189.9 333.9C189.8 333.8 189.7 333.8 189.6 333.7L189.3 334C186.6 337.2 183.9 339.7 182.3 339.7C181.5 339.7 181 339.1 181.9 337.6L187.3 328C188.9 325.1 187.4 323.1 185.3 323.1C183.7 323.1 182 324 180.1 325.9L181.5 323.4H177.7L171.7 333.8C171.6 333.7 171.5 333.7 171.3 333.6L171 333.9C168.3 337.1 165.6 339.6 164 339.6C163.2 339.6 162.7 339 163.6 337.5L169.7 326.8H167.6C167.7 325.2 166.1 323 163.6 323C161.6 323 158.7 324.6 157.1 327.4L153.2 334.1C152.9 333.9 152.6 333.7 152.4 333.6L152.1 333.9C149.4 337.1 147.3 339.6 143.5 339.6C140.9 339.6 139.4 337 141.6 333.2L142.7 331.3C143.4 331.4 144.1 331.5 144.8 331.5C148.8 331.5 153.4 329.4 156.4 324.2C157.5 322.3 157.9 320.6 157.9 319.1C157.9 315.7 155.7 313.5 152.9 313.5C150.8 313.5 148.4 315 146.7 317.9L140.8 328C138.6 326.8 137.4 324.7 137.4 322.6C137.4 320.9 138.2 319.1 139.8 317.8L138.6 315.6C135.9 317.5 134.7 320.1 134.7 322.6C134.7 325.6 136.4 328.5 139.5 330.1L138.4 332.1C135.7 336.7 137.3 341.8 142.6 341.8C146.8 341.8 148.7 339.9 151.3 337.4C150.5 339.8 151.7 341.8 154.3 341.8C155.8 341.8 157.7 340.8 159.5 339.3C159.7 340.8 160.8 341.8 162.8 341.8C164.6 341.8 166.6 340.7 168.5 339L167.1 341.4H170.9L176.7 331.3C182.5 324.1 185.1 325 183.4 327.8L178.5 336.3C176.9 339.1 178 341.7 181.1 341.7C183.1 341.7 185.4 340.3 187.5 338.3C187 340.4 188 341.7 189.9 341.7C191.7 341.7 193.8 340.2 195.5 338.7L193.4 342.3C188.3 343.8 185.1 345.9 185.1 348.8C185.1 352.4 190.7 353.2 193.4 348.5L196.3 343.5C199.5 342.5 202.6 340.5 205.8 337.3C205.3 342.6 212.3 343.8 216.5 338.4H217.3C218.7 338.4 220.5 337.9 222.2 336.9L219.7 341.3H223.5L229.3 331.2C235.1 324 237.7 324.9 236 327.7L231.1 336.2C229.5 339 230.6 341.6 233.7 341.6C236.8 341.6 240.4 338.3 243.5 334.6C243.4 334.6 242.8 334 242.3 333.8ZM360.9 298.2C358.6 301.9 356.3 303.7 354.7 303.7C353.9 303.7 353.4 303.1 354.3 301.6L359.6 292.4C361.6 288.9 365.7 289.8 363.8 293.2L360.9 298.2ZM324.7 298.4C322.4 302 320.2 303.7 318.6 303.7C317.8 303.7 317.3 303.1 318.2 301.6L323.5 292.4C325.5 288.9 329.6 289.8 327.7 293.2L324.7 298.4ZM284.8 312.2C284 313.6 282.7 313.4 282.7 312.4C282.7 311.4 283.6 310.3 286.5 309.2L284.8 312.2ZM292.8 283.7C293.9 281.8 295.2 280.9 296.2 280.9C302.2 280.9 297.7 295.3 288.1 293.1H287.3L292.8 283.7ZM370.5 297.8L370.2 298.1C367.5 301.3 364.8 303.8 363.2 303.8C362.4 303.8 361.9 303.2 362.8 301.7L375.6 279.6H371.8L366.2 289.2C365.5 288.1 364.3 287.2 362.7 287.2C360.7 287.2 357.8 288.8 356.2 291.6L352.5 298C352.4 298 352.3 297.9 352.3 297.9L352 298.2C349.3 301.4 347 303.9 345.3 303.9C344.5 303.9 344 303.3 344.9 301.8L350.4 292.2C352 289.3 350.5 287.3 348.4 287.3C346.8 287.3 345.1 288.2 343.2 290.1L344.6 287.6H340.8L334.8 298C334.7 297.9 334.6 297.9 334.4 297.8L334.1 298.1C331.4 301.3 328.7 303.8 327.1 303.8C326.3 303.8 325.8 303.2 326.7 301.7L332.8 291H330.7C330.8 289.4 329.2 287.2 326.7 287.2C324.7 287.2 321.8 288.8 320.2 291.6L316.5 297.9L316.3 298.1C313.6 301.3 310.5 303.8 308.9 303.8C308.1 303.8 307.6 303.2 308.5 301.7L312.3 295.1C313.6 292.8 313 291.5 311.8 290L309.7 287.5C309.2 286.8 309.2 286 309.9 285.3L307.9 283.2C305.8 285.1 305.6 287.3 306.9 289L307.2 289.4C305.5 291.8 303.3 295 300.8 297.9C300.9 298 301 298.1 301.1 298.2C298 301.8 295.3 304.1 292.4 305.4L297.2 297.2H293.4L293 297.9C291 301.4 288.7 303.9 285.8 303.9C283.2 303.9 282.8 301.3 285 297.5L286.1 295.6C286.8 295.7 287.5 295.8 288.2 295.8C301.6 295.8 308.1 277.8 296.3 277.8C294.2 277.8 291.8 279.3 290.1 282.2L284.2 292.3C282 291.1 280.8 289 280.8 286.9C280.8 285.2 281.6 283.4 283.2 282.1L282 279.9C279.3 281.8 278.1 284.4 278.1 286.9C278.1 289.9 279.8 292.8 282.9 294.4L281.8 296.4C279.1 301 279.6 306.1 285 306.1C286.6 306.1 287.9 305.6 289.1 304.9L288.1 306.6C283 308.2 279.8 310.2 279.8 313.1C279.8 316.7 285.4 317.5 288.1 312.8L291 307.8C294.9 306.6 298.8 303.9 302.9 299.1C302.8 299 302.8 298.9 302.7 298.7C304.4 296.7 305.8 294.8 308.7 291L309.2 291.6C309.7 292.2 309.9 293 309.4 293.7L305.4 300.6C303.8 303.4 304.9 306 308 306C309.9 306 312.3 304.8 314.4 303C314.4 304.7 315.5 306 317.7 306C319.2 306 321.1 305 322.9 303.5C323.1 305 324.2 306 326.2 306C328 306 330 304.9 331.9 303.2L330.5 305.6H334.3L340.1 295.5C345.9 288.3 348.5 289.2 346.8 292L341.9 300.5C340.3 303.3 341.4 305.9 344.5 305.9C346.5 305.9 348.3 304.5 350.5 302.6C350.3 304.5 351.5 305.9 353.8 305.9C355.3 305.9 357.2 304.9 359 303.4C359.2 304.9 360.3 305.9 362.3 305.9C365.4 305.9 369 302.6 372.1 298.9C371.6 298.6 371 298 370.5 297.8ZM258.2 292.5C260.4 288.8 264.2 289.4 262 293.3L261.5 294.2C259.7 297.3 257.2 297.2 255.8 296.7L258.2 292.5ZM255.2 306.1C259.5 306.1 263.7 302.8 266.9 299.1C266.6 298.6 266 298 265.5 297.8L265.2 298.1C262.5 301.3 259 303.8 256.3 303.8C254 303.8 252.6 302.3 254.3 299.3L254.7 298.6C257.1 299.6 261.7 299.1 264.5 294.2L265 293.3C267 289.8 265.1 287.2 262 287.2C259 287.2 256.5 288.8 254.9 291.6L251.2 297.9C251.2 297.9 251.1 297.9 251.1 297.8L250.8 298.1C248.1 301.3 245.4 303.8 243.8 303.8C243 303.8 242.5 303.2 243.4 301.7L248.8 292.1C250.4 289.2 248.9 287.2 246.8 287.2C245.2 287.2 243.4 288.1 241.5 290.1L247.5 279.6H243.7L233 298.1C232.9 298 232.7 297.9 232.6 297.8L232.3 298.1C229.6 301.3 226.9 303.8 225.3 303.8C224.5 303.8 224 303.2 224.9 301.7L233 287.6H236.1L237.2 285.8H234.1L237.7 279.6H233.9L230.3 285.8H226.9L225.8 287.6H229.2L221.6 300.8C220 303.6 221.1 306.2 224.2 306.2C226.1 306.2 228.1 305 230.1 303.2L228.6 305.8H232.4L238.1 295.8C243.9 288.5 246.5 289.4 244.9 292.2L240 300.7C238.4 303.5 239.5 306.1 242.6 306.1C244.9 306.1 247.4 304.3 249.9 301.9C250.1 304.3 252.1 306.1 255.2 306.1ZM127.7 292.5C129.9 288.8 133.7 289.4 131.5 293.3L131 294.2C129.2 297.3 126.7 297.2 125.3 296.7L127.7 292.5ZM150.8 301.7L156.1 292.5C158.1 289 162.2 289.9 160.3 293.3L157.4 298.5C155.1 302.1 152.9 303.8 151.3 303.8C150.4 303.7 149.9 303.2 150.8 301.7ZM204.8 292.5C207 288.8 210.8 289.4 208.6 293.3L208.1 294.2C206.3 297.3 203.9 297.2 202.4 296.7L204.8 292.5ZM147 302C146.4 304.2 147.6 306.1 150.1 306.1C151.6 306.1 153.5 305.1 155.3 303.6C155.5 305.1 156.6 306.1 158.6 306.1C160.6 306.1 162.8 304.7 165 302.8C164.6 304.8 165.5 306.1 167.4 306.1C169.5 306.1 171.8 304.2 173.6 302.5C173.2 304.5 174.4 306.1 176.8 306.1C179.9 306.1 183.5 302.8 186.6 299.1C186.6 299.1 186.5 299 186.5 298.9C188.6 296.5 190.4 293.9 191.7 292.1C190.2 296 191 303.1 187.4 303.1C186.1 303.1 185.6 301.7 185.6 301.7L183.2 302.9C183.2 302.9 183.9 306 187.3 306C187.7 306 188 306 188.4 305.9H188.5C191.3 305.5 194 303.8 196.4 301.7C196.5 304.2 198.4 306 201.5 306C205.8 306 210 302.7 213.2 299C212.9 298.5 212.3 297.9 211.8 297.7L211.5 298C208.8 301.2 205.3 303.7 202.6 303.7C200.3 303.7 198.9 302.2 200.6 299.2L201 298.5C203.4 299.5 208 299 210.8 294.1L211.3 293.2C213.3 289.7 211.4 287.1 208.3 287.1C205.2 287.1 202.8 288.7 201.2 291.5L197.5 297.8H197.4L197.1 298.1C195.8 299.7 194.2 301 192.6 302.2C193.8 298.6 193.5 293.1 195.9 288.2L193.1 286.7C191.5 288.8 188.1 293.8 184.7 297.8L184.8 297.9L184.7 298.1C182 301.3 179.3 303.8 177.7 303.8C176.9 303.8 176.4 303.2 177.3 301.7L185.4 287.6H181.6L174.9 299.3C172 301.9 169.8 303.4 169.1 303C168.2 302.6 169.1 301.2 169.6 300.4L177 287.5H173.2L167.2 297.9C167.1 297.8 167 297.8 166.9 297.7L166.6 298C163.9 301.2 161.2 303.7 159.6 303.7C158.8 303.7 158.3 303.1 159.2 301.6L165.3 290.9H163.2C163.3 289.3 161.7 287.1 159.2 287.1C157.2 287.1 154.3 288.7 152.7 291.5L148.9 298.1C148.7 298 148.5 297.8 148.3 297.7L148 298C145.3 301.2 142.1 303.7 139.5 303.7C137.2 303.7 135.8 302.2 137.5 299.2L141.4 292.4C143.6 288.7 147.4 289.3 145.2 293.2L144.7 294.1H147.8L148.3 293.2C150.3 289.7 148.4 287.1 145.3 287.1C142.2 287.1 140.2 288.7 138.6 291.5L134.8 297.9C134.7 297.8 134.6 297.8 134.5 297.7L134.2 298C131.5 301.2 128.3 303.7 125.6 303.7C123.3 303.7 121.9 302.2 123.6 299.2L124 298.5C126.4 299.5 131 299 133.8 294.1L134.3 293.2C136.3 289.7 134.4 287.1 131.3 287.1C128.2 287.1 125.8 288.7 124.2 291.5L120.2 298.3C117.8 302.3 119.9 306 124.3 306C127.6 306 130.3 304 133.1 301.4C133 304 135 306 138.2 306C141.6 306.1 144.3 304.3 147 302ZM110.1 288L113.2 282.8C116 278 119.5 280.8 117.6 284.4C116.1 287.1 114 288 110.1 288ZM106 305.3C103.7 305.3 102 304.8 100.6 304C101.3 303.2 101.9 302.3 102.5 301.3L108.9 290.3L109.9 290.4C118.7 292.2 115.2 305.3 106 305.3ZM115.4 289.8C123 287.2 123.6 277.7 116.1 277.7C114 277.7 111.6 279.2 109.9 282.1L99.7 299.7C99.3 300.5 98.8 301.2 98.2 301.8C95.6 298.2 96.3 292.8 100 290.5L98.5 288.6C90.6 293.6 92.9 308.2 106.1 308.2C117.4 308.2 122.6 294.6 115.4 289.8Z" fill="white"/>
</svg>
