<svg xmlns="http://www.w3.org/2000/svg" width="458" height="352" fill="none"><path fill="#766458" d="m152.3 56.1-2.8 4.9h-2.7l-.9 1.4h2.8l-6.1 10.4c-1.3 2.2-.4 4.2 2.1 4.2 1.8 0 3.7-1.3 5.6-3.1 0 3.8 5.3 4.5 8.6.5h.7c1.8 0 4.6-1.1 6.2-2.9-.2-.4-.7-.9-1.1-1l-.2.2c-1.4 1.5-3 2.2-4.6 2.2l2.8-4.8c1.8-3.1.1-6.1-2.7-6.1-2.3 0-4.1.9-5.9 3.9l-1.5 2.6-1.2 2.1-.2.2c-2.2 2.5-4.3 4.5-5.6 4.5-.7 0-1-.5-.3-1.6l6.5-11.2h2.5l.7-1.5h-2.5l2.8-4.9h-3Zm7.5 7.8c1 .1 1.4 1.3.4 3l-2.2 3.7h-.1c-1 0-1.8.8-1.8 1.8 0 .4.1.7.3 1v.1c-1.4 2.4-4.9 2-3.1-1.1l2.3-3.9 1.5-2.4c.9-1.6 2-2.2 2.7-2.2Zm22-7.8L179 61h-2.7l-.9 1.4h2.8L172 72.8c-1.3 2.2-.4 4.2 2.1 4.2 1.2 0 2.5-.6 3.9-1.6l-.8 1.3h3l4.6-7.9c4.6-5.8 6.7-5 5.4-2.8l-3.9 6.7c-1.3 2.2-.4 4.2 2.1 4.2 1.8 0 3.8-1.4 5.7-3.2.1 1.9 1.7 3.2 4.1 3.2 3.4 0 6.8-2.6 9.3-5.5-.2-.4-.7-.9-1.1-1l-.2.2c-2.2 2.5-5 4.5-7.1 4.5-1.9 0-3-1.1-1.6-3.6l.3-.5c1.9.8 5.6.4 7.9-3.4l.4-.7c1.6-2.8.1-4.8-2.4-4.8-2.4 0-4.4 1.3-5.7 3.4l-2.9 5-.2.2c-2.2 2.5-4.3 4.5-5.6 4.5-.7 0-1-.5-.4-1.6l4.4-7.5c1.3-2.3.1-3.9-1.6-3.9-1.3 0-2.7.7-4.2 2.3l4.8-8.3h-3l-8.4 14.4-.2.2c-2.2 2.5-4.3 4.5-5.6 4.5-.7 0-1-.5-.3-1.6l6.5-11.2h2.5l.9-1.4h-2.5l2.8-4.9-3.2-.1Zm21.3 8.2c1-.1 1.5.9.5 2.6l-.4.7c-1.4 2.4-3.4 2.4-4.5 2l1.9-3.4c.7-1.2 1.7-1.8 2.5-1.9Zm44.3-5.4c-1.7 1.5-1.9 3.2-.8 4.6l.3.3c-1.3 1.9-3.1 4.4-5.1 6.7l-.2.2c-1.4 1.5-3 2.2-4.6 2.2l2.8-4.8c1.8-3.1.1-6.1-2.7-6.1-2.3 0-4.1.9-5.9 3.9l-1.5 2.6-1.2 2.1-.2.2c-2.5 2.8-4.6 4.7-7 5.7l6.8-11.4h-1.8c0-1.2-1.3-2.9-3.2-2.9-1.6 0-3.9 1.3-5.2 3.4l-4.2 7.2c-1.3 2.2-.4 4.2 2.1 4.2.8 0 1.9-.4 2.9-1l-.8 1.4c-4.1 1.2-6.6 2.9-6.6 5.1 0 2.9 4.4 3.5 6.6-.2l2.3-3.9c2.4-.7 4.8-2.1 7.2-4.5 0 3.8 5.3 4.6 8.6.5h.7c1.8 0 4.6-1.1 6.2-2.9 1.4-1.7 2.6-3.2 5-6.4l.4.5c.4.5.5 1.1.2 1.7l-3.2 5.5c-1.3 2.2-.4 4.2 2.1 4.2 1.5 0 3.2-1 4.8-2.4-.1 1.4.9 2.4 2.6 2.4.8 0 1.9-.4 2.9-1l-.8 1.4c-4.1 1.2-6.6 2.9-6.6 5.1 0 2.9 4.4 3.5 6.6-.2l2.3-3.9c2.5-.8 4.9-2.2 7.4-4.6.1 1.9 1.7 3.2 4.1 3.2 2.5 0 4.9-1.4 7-3.2-.1 3.9 5.3 4.7 8.6.6h.7c.9 0 2.2-.3 3.4-.9-.8 2.1-.1 3.5 1.7 3.5 1.7 0 3.5-1.5 5-2.9-.3 1.6.7 2.9 2.6 2.9 2.5 0 5.4-2.6 7.9-5.5 1.7-2 3.2-4 4.3-5.4-1.2 3.1-.6 8.7-3.4 8.7-1 0-1.4-1.1-1.4-1.1l-1.9 1s.6 2.4 3.3 2.4c.3 0 .6 0 .8-.1h.1c3.1-.4 6.1-2.8 8.4-5.4-.2-.5-.7-.9-1.1-1l-.2.2c-1.1 1.2-2.3 2.3-3.6 3.2 1-2.8.8-7.2 2.6-11l-2.3-1.2c-1.2 1.7-4 5.6-6.7 8.7l-.2.2c-2.2 2.5-4.3 4.5-5.6 4.5-.7 0-1-.5-.3-1.6l6.4-11.2h-3l-5.4 9.3c-2.3 2.1-4.1 3.2-4.6 3-.8-.3 0-1.4.4-2.1l5.9-10.2h-3l-4.7 8.1-.2.2c-1.4 1.5-3 2.2-4.6 2.2l2.8-4.8c1.8-3.1.1-6.1-2.7-6.1-2.3 0-4.1.9-5.9 3.9l-1.5 2.6-1.2 2.1-.2.2c-2.2 2.5-5 4.5-7.1 4.5-1.9 0-3-1.1-1.6-3.6l.3-.5c1.9.8 5.6.4 7.9-3.4l.4-.7c1.6-2.8.1-4.8-2.4-4.8-2.4 0-4.4 1.3-5.7 3.4l-2.9 5-.2.2c-2.5 2.8-4.6 4.7-7 5.7l6.8-11.4h-1.8c0-1.2-1.3-2.9-3.2-2.9-1.6 0-3.9 1.3-5.2 3.4l-2.9 4.9-.2.2c-2.2 2.5-4.3 4.5-5.6 4.5-.7 0-1-.5-.3-1.6l3-5.2c1-1.8.6-2.9-.4-4l-1.7-2c-.4-.5-.4-1.1.2-1.7l-1.9-1.9Zm-10.3 5c1 .1 1.5 1.3.4 3l-2.2 3.7h-.1c-1 0-1.8.8-1.8 1.8 0 .4.1.7.3 1v.1c-1.4 2.4-4.9 2-3.1-1.1l2.3-3.9 1.5-2.4c.9-1.6 1.9-2.2 2.7-2.2Zm50.2 0c1 .1 1.5 1.3.4 3l-2.2 3.7h-.1c-1 0-1.8.8-1.8 1.8 0 .4.1.7.3 1v.1c-1.4 2.4-4.9 2-3.1-1.1l2.3-3.9 1.5-2.4c.8-1.6 1.9-2.2 2.7-2.2Zm-11.7.4c1-.1 1.5.9.5 2.6l-.4.7c-1.5 2.4-3.4 2.4-4.5 2l1.9-3.4c.7-1.2 1.7-1.8 2.5-1.9Zm-52.4.2c1 0 1.7.9.8 2.4l-2.3 4c-1.8 2.9-3.7 4.3-4.9 4.3-.7 0-1-.5-.3-1.6l4.2-7.3c.7-1.2 1.7-1.8 2.5-1.8Zm38.9 0c1 0 1.7.9.8 2.4l-2.3 4c-1.8 2.9-3.7 4.3-4.9 4.3-.7 0-1-.5-.3-1.6l4.2-7.3c.7-1.2 1.7-1.8 2.5-1.8Zm-45.3 14.9-1.4 2.4c-.6 1.1-1.7.9-1.7.1 0-.7.8-1.6 3.1-2.5Zm38.9 0-1.4 2.4c-.6 1.1-1.7.9-1.7.1.1-.7.8-1.6 3.1-2.5ZM101 67.8h28.9v1.9H101v-1.9Zm227.1 0H357v1.9h-28.9v-1.9Z"/><path fill="#81B3D3" d="M322.7 37.4v7.7h-20.8V.4h20.8V8h-13.2v10.8H320v7.7h-10.5v10.9h13.2ZM289.9.4h7.6v44.7h-7.6v-22l-3 11.4h-7.4l-3-11.4v22h-7.6V.4h7.6l6.8 21.6L289.9.4ZM258 8h-5.5v29.3h5.5V8Zm3-7.6c2.5 0 4.7 2.1 4.7 4.7v35.3c0 2.6-2.2 4.7-4.7 4.7h-11.4c-2.6 0-4.7-2.2-4.7-4.7V5.1c0-2.6 2.1-4.7 4.7-4.7H261Zm-28 28.2 7.7-1.8v13.6c0 2.6-2.2 4.7-4.7 4.7h-11.4c-2.6 0-4.7-2.2-4.7-4.7V5.1c0-2.6 2.1-4.7 4.7-4.7H236c2.5 0 4.7 2.1 4.7 4.7v9.1L233 16V8h-5.5v29.3h5.5v-8.7Zm-16.8 8.8v7.7H198V.4h7.6v37h10.6Zm-21.4 0v7.7H174V.4h20.8V8h-13.2v10.8h10.5v7.7h-10.5v10.9h13.2ZM162.6.4h7.7L169 45.1h-14.5l-2-18.5-2 18.5H136L135 .4h7.6l.6 37h.8l4.8-37h7.6l4.9 37h.8l.5-37Z"/><path fill="#fff" d="m380.4 214.7 25.4-74H431l25.7 74h-20.2l-3.7-13.4h-28.6l-3.8 13.4h-20Zm35.7-52.1-7.5 24.5h20.1l-7.5-24.5-1.2-3.6c-.3-1.3-.6-2.5-.8-3.8-.2-.5-.3-.9-.3-1.3-.1-.5-.2-.9-.2-1.3-.1.4-.2.8-.3 1.3-.1.4-.2.8-.2 1.3-.1.2-.1.3-.1.5 0 .1 0 .2-.1.3-.2 1.1-.5 2.3-.8 3.4-.5 1-.8 2.1-1.1 3.2Zm-117.7 52.1v-74h19.5l27.9 38c.7 1.1 1.4 2.3 2 3.5.7 1.2 1.4 2.4 2 3.6l1.4 3c.5 1 .9 2 1.4 2.9l-.3-2.4c-.1-.8-.2-1.6-.2-2.4-.2-1.6-.3-3.2-.3-4.8-.1-1.7-.1-3.3-.1-5v-36.3h19.4v74h-19.4l-28.1-38.2c-.8-.9-1.5-2-2.2-3.3-.7-1.3-1.4-2.7-2-4.1-.4-1-.9-1.9-1.4-2.9-.4-.9-.7-1.9-1.2-2.8a93.41 93.41 0 0 1 1.2 14.7v36.5h-19.6Zm-88-54.9c3.6-6.6 8.5-11.6 14.9-15.1a40.8 40.8 0 0 1 22.7-5.1c1 .1 2 .2 2.9.2 2.9.4 5.7 1.1 8.5 2.1a36.1 36.1 0 0 1 20.9 18.2c3 5.9 4.5 12 4.5 18.5 0 .8 0 1.6-.1 2.4 0 .8-.1 1.5-.2 2.3-.2 1.7-.5 3.3-.9 4.9-.4 1.6-.9 3.1-1.5 4.6-3.3 7.5-8.3 13.4-15.2 17.5-6.9 4.1-14.1 6.2-21.7 6.2-.5 0-1.1 0-1.6-.1h-1.5c-2.7-.2-5.3-.7-7.9-1.4-2.6-.7-5.1-1.7-7.4-2.9a37.5 37.5 0 0 1-15.3-14.5c-3.7-6.3-5.6-12.9-5.6-19.7 0-1 0-2 .1-3s.2-2.1.5-3.1c.4-2 .9-4.1 1.6-6 .4-2.2 1.3-4.1 2.3-6Zm52.8 26.6.6-2.4c.2-.9.4-1.7.5-2.6.1-.5.1-1.1.1-1.6.1-.5.1-1 .1-1.5s0-.9-.1-1.4v-1.4c-.4-3.3-1.4-6.5-3-9.6-1.6-3.1-3.9-5.5-6.7-7.2-.8-.4-1.5-.7-2.3-1-.8-.3-1.5-.6-2.3-.8-.8-.2-1.5-.3-2.3-.3-.8-.2-1.5-.2-2.3-.2-3.9 0-7.6 1.2-10.9 3.7-3.3 2.5-5.7 5.8-7 9.9l-.2.5v.5l-.6 2.2c-.2.7-.3 1.4-.5 2.2l-.2 1.6v2.4c0 .2 0 .5.1.8.2 4.1 1.5 8 3.7 11.7 2.3 3.6 5.5 6 9.5 7.2l1.4.5c.5.1 1 .2 1.5.2l1.4.2h1.4c4.1 0 7.8-1.2 11-3.6 3.3-2.6 5.7-5.9 7.1-10Zm-82.1 21.4a32.6 32.6 0 0 1-11.8 5.1c-4.2.9-8.6 1.5-12.9 1.7-1.2.1-2.5.1-3.7.1h-23.8v-74H154a71.43 71.43 0 0 1 15.9 1.8c4.1.9 7.9 2.7 11.3 5.1 4.3 3 7.7 7 10.1 12 2.4 5 3.8 10.1 4.1 15.3.1.5.1.9.1 1.4v2.9c-.2 5.5-1.5 10.8-3.9 15.9s-6 9.4-10.5 12.7Zm-32.4-9.7c.2 0 .5 0 .7.1h.8c.3 0 .6 0 .8.1h3.1c.9-.1 1.7-.2 2.4-.2 2-.2 4-.5 5.9-1 1.9-.5 3.7-1.4 5.2-2.4 2.5-1.8 4.3-4.2 5.5-7.2 1.2-3.1 1.9-6.3 1.9-9.6v-.9c0-.3 0-.6-.1-.9-.2-2.9-.9-5.8-2.1-8.5-1.2-2.8-2.9-5-5.1-6.6-1.6-1.3-3.5-2.2-5.5-2.7s-4-.7-6-.8h-7.5v40.6Zm-79.9 16.6v-74h45.4v16.1H88.6v13h24v15.8h-24v12.5h25.5v16.6H68.8ZM9.4 190.9c.1.1.1.2.1.2.1 0 .2 0 .2.1 2.1 2.3 4.5 4.5 7.1 6.5 2.6 1.9 5.7 3 9.1 3.1.1 0 .2 0 .2.1h.3c.1 0 .2 0 .2.1h1.3c.4-.1.7-.2 1-.2 1.2-.2 2.4-.7 3.5-1.4 1.2-.7 2.1-1.5 2.7-2.6l.2-.5.2-.5c.2-.5.3-1 .3-1.5.1-.5.1-.9.1-1.3 0-2.1-.9-3.8-2.8-5.2-1.7-1.4-3.7-2.6-5.8-3.4-.8-.3-1.6-.5-2.4-.7l-2.2-.6h-.2c-.1-.1-.2-.1-.2-.1-3.8-.9-7.4-2.4-10.7-4.4-3.3-2.1-5.6-5.1-6.9-8.9-.2-.8-.5-1.6-.7-2.4-.2-.9-.3-1.8-.3-2.7v-3.4c.1-.6.2-1.2.3-1.9.2-1.6.6-3.1 1.2-4.6.5-1.5 1.2-2.9 2.1-4.2 2.5-4.1 5.7-7 9.5-8.8 3.9-1.8 8.1-2.7 12.3-2.7 1 0 2 .1 3 .2l3.3.3c2.8.5 5.6 1.3 8.2 2.3 2.8 1.1 5.3 2.4 7.7 3.8l-6.4 14.3a55.9 55.9 0 0 0-6.6-4.1 15.9 15.9 0 0 0-7.5-1.7h-.9c-1.8.2-3.4 1-5 2.4-1.5 1.3-2.3 2.7-2.3 4.3v.7c.1.2.2.5.3.7.2.5.4 1 .8 1.5s.8.9 1.3 1.3c.9.7 2.1 1.4 3.7 2 1.6.5 3.3 1.1 5.1 1.6 1.5.4 2.9.8 4.3 1.2 1.4.3 2.6.6 3.5.9 4.3 1.5 7.6 4.1 9.8 7.8 2.2 3.6 3.3 7.4 3.4 11.4v.6c0 .5 0 .9-.1 1.4v1.3c-.5 4-1.8 7.9-3.9 11.5-2.1 3.6-4.9 6.4-8.5 8.4-1.3.6-2.7 1.2-4.1 1.6-1.4.4-2.8.7-4.2 1-1.1.2-2.3.4-3.5.5-1.1.2-2.2.2-3.4.2h-1.4c-4.6-.2-9.2-1.2-13.7-3-4.5-1.9-8.5-4.5-12-7.7l9.4-14.8ZM351 338c0-.3.1-.6.2-.9.1-.3.3-.6.5-.8.2-.2.5-.4.8-.6.3-.1.7-.2 1.1-.2.5 0 .9.1 1.3.3.4.2.8.4 1.1.7.2.3.4.6.6 1 .1.4.2.8.2 1.3 0 .9-.2 1.6-.5 2.4-.3.7-.7 1.4-1.3 1.9-.3.3-.5.5-.8.7-.3.2-.6.4-.9.5-.3.1-.5.3-.7.4-.1.1-.2.1-.4.2l-1.4-2c.2-.1.5-.2.8-.4.3-.1.6-.3.9-.5.3-.2.5-.5.7-.8.2-.3.3-.6.3-1-.6 0-1.2-.2-1.7-.6-.6-.3-.8-.8-.8-1.6Zm7.8 0c0-.3.1-.6.2-.9.1-.3.3-.6.5-.8.2-.2.5-.4.8-.6.3-.1.7-.2 1.1-.2.5 0 .9.1 1.3.3.4.2.8.4 1.1.7.2.3.4.6.6 1 .1.4.2.8.2 1.3 0 .8-.1 1.6-.5 2.4-.3.7-.7 1.4-1.3 1.9-.3.3-.5.5-.8.7-.3.2-.6.4-.9.5-.3.1-.5.3-.7.4-.1.1-.2.1-.4.2l-1.3-2c.2-.1.5-.2.8-.4.3-.1.6-.3.9-.5.3-.2.5-.5.7-.8.2-.3.3-.6.3-1-.6 0-1.2-.2-1.7-.6-.7-.3-.9-.8-.9-1.6ZM94.2 279.3c0 .3-.1.6-.2.9-.1.3-.3.6-.5.8a2.73 2.73 0 0 1-3.2.5c-.4-.2-.8-.4-1.1-.7-.3-.3-.5-.7-.6-1-.1-.4-.2-.8-.2-1.3 0-.9.2-1.6.5-2.4.3-.7.7-1.4 1.3-1.9a5 5 0 0 1 1.7-1.2c.3-.1.5-.3.7-.4.2-.1.3-.1.4-.2l1.3 2c-.3.1-.6.2-.8.4-.3.1-.6.3-.9.5-.3.2-.5.5-.7.8-.2.3-.3.6-.3 1 .7 0 1.2.2 1.7.6.7.4.9.9.9 1.6Zm-7.8 0c0 .6-.2 1.2-.7 1.7-.2.2-.5.4-.8.6a3.08 3.08 0 0 1-2.4-.1c-.4-.2-.8-.4-1.1-.7-.3-.3-.5-.7-.6-1-.1-.4-.2-.8-.2-1.3 0-.9.2-1.6.5-2.4.3-.7.7-1.4 1.3-1.9.2-.2.5-.5.8-.7.3-.2.6-.4.9-.5.3-.1.5-.3.7-.4.2-.1.3-.1.4-.2l1.3 2c-.2.1-.5.2-.8.4-.3.1-.6.3-.9.5-.3.2-.5.5-.7.8-.2.3-.3.6-.3 1 .7 0 1.2.2 1.7.6.6.4.9.9.9 1.6Zm245.3 56.9h3.8l11.8-20.6h-3.8l-11.8 20.6Zm-.1 1.5c-1.2 0-2.2 1-2.2 2.2 0 1.2.9 2.2 2.2 2.2 1.2 0 2.2-.9 2.2-2.2 0-1.3-1-2.2-2.2-2.2Zm-26.4-5.5 1.1-1.9c4.4-6.1 7.3-4.4 6-2.1l-1.8 3.1c-1.1 1.9-4.5 3.3-5.3.9Zm25.1 2.9c-.2-.6-.9-1.2-1.4-1.3l-.3.3c-1.3 1.6-2.9 2.9-4.5 4.1 1.2-3.6.9-9.1 3.3-14l-2.8-1.5c-1.6 2.1-5 7.1-8.4 11.1l-.3.3c-2.7 3.2-5.4 5.7-7 5.7-.8 0-1.6-.8-1.6-2.5v-1.6c2.7.3 5.5-1.4 7.2-4.5l1-1.7c3.5-6-2.2-8-6.1-4.5l5.4-9.3H311l-10.8 18.7c-.2-.2-.4-.3-.7-.5l-.3.3c-2.7 3.2-6.2 5.7-8.9 5.7-2.3 0-3.7-1.5-2-4.5l3.9-6.8c2.2-3.7 6-3.1 3.8.8l-.5.9h3.1l.5-.9c2-3.5.1-6.1-3-6.1s-5.5 1.6-7.1 4.4l-3.7 6.4c-.1 0-.2-.1-.2-.1l-.3.3c-2.7 3.2-5.4 5.7-7 5.7-.8 0-1.3-.6-.4-2.1l8.1-14.1h-3.8l-6.7 11.7c-2.9 2.6-5.1 4.1-5.8 3.7-.9-.4 0-1.8.5-2.6l7.4-12.9h-3.8l-7.3 12.7c-.8.7-2.4 1.4-3.2 1.9 1.2-3.6.9-9.1 3.3-14l-2.8-1.5c-1.6 2.1-10.3 13.7-13.7 17.7.3.5.9.9 1.4 1.3 2.1-2.5 9.3-11.7 10.7-13.5-1.5 3.9-.7 11-4.3 11-1.3 0-1.8-1.4-1.8-1.4l-2.4 1.2s.7 3 4.1 3c.4 0 .7 0 1.1-.1h.1c1.9-.3 4.6-1.1 6.4-2.4 0 1.5.9 2.5 2.5 2.5 2.1 0 4.4-1.9 6.2-3.6-.4 2 .8 3.6 3.2 3.6 2.3 0 5-1.9 7.4-4.4 0 2.5 2 4.4 5.1 4.4 3.1 0 6.1-1.7 8.7-4l-2.1 3.7h3.8l4.3-7.5v3c0 3.2.6 4.9 3.7 4.9s6.7-3.3 9.8-7c2.1-2.5 4-5.1 5.4-6.9-1.5 3.9-.7 11-4.3 11-1.3 0-1.8-1.4-1.8-1.4l-2.4 1.2s.7 3 4.1 3c.4 0 .7 0 1.1-.1h.1c4-.5 7.8-3.6 10.6-6.9ZM215.7 334h-.2c-1.2 0-2.2 1-2.2 2.3 0 .5.1.9.4 1.3v.1c-1.8 3-6.1 2.5-3.9-1.5l2.9-5 1.8-3.1c2.7-4.5 6.3-2.7 4 1.2l-2.8 4.7Zm-25.4 14.2c-.8 1.4-2.1 1.2-2.1.2s.9-2.1 3.8-3.2l-1.7 3Zm-28.8-13.8c-2.3 3.6-4.5 5.3-6.1 5.3-.8 0-1.3-.6-.4-2.1l5.3-9.2c2-3.5 6.1-2.6 4.2.8l-3 5.2Zm-12-14.7c1.1-1.9 2.4-2.8 3.4-2.8 1.4 0 2.1.9 2.1 2.3 0 3.5-4.4 10.8-10.2 9.9h-.8l5.5-9.4Zm92.8 14.1-.3.3c-2.7 3.2-5.4 5.7-7 5.7-.8 0-1.3-.6-.4-2.1l5.4-9.6c1.6-2.9.1-4.9-2-4.9-1.6 0-3.3.9-5.2 2.8l1.4-2.5h-3.8l-6.1 10.5c-.2-.1-.3-.2-.5-.3l-.3.3a7.79 7.79 0 0 1-5.7 2.8l3.6-6.1c2.3-4 .2-7.7-3.4-7.7-2.9 0-5.2 1.2-7.3 4.9l-1.9 3.2-1.6 2.8c-.1-.1-.2-.1-.3-.2l-.3.3c-3.1 3.6-5.8 5.9-8.8 7.2l10.4-17.7h-3.8l-6.7 11.6c-2.9 2.7-5.2 4.2-5.9 3.9-.9-.4 0-1.8.5-2.6l7.4-12.9h-3.8l-6 10.4c-.1-.1-.2-.1-.3-.2l-.3.3c-2.7 3.2-5.4 5.7-7 5.7-.8 0-1.3-.6-.4-2.1l5.4-9.6c1.6-2.9.1-4.9-2-4.9-1.6 0-3.3.9-5.2 2.8l1.4-2.5h-3.8l-6 10.4c-.1-.1-.2-.1-.4-.2l-.3.3c-2.7 3.2-5.4 5.7-7 5.7-.8 0-1.3-.6-.4-2.1l6.1-10.7h-2.1c.1-1.6-1.5-3.8-4-3.8-2 0-4.9 1.6-6.5 4.4l-3.9 6.7c-.3-.2-.6-.4-.8-.5l-.3.3c-2.7 3.2-4.8 5.7-8.6 5.7-2.6 0-4.1-2.6-1.9-6.4l1.1-1.9c.7.1 1.4.2 2.1.2 4 0 8.6-2.1 11.6-7.3 1.1-1.9 1.5-3.6 1.5-5.1 0-3.4-2.2-5.6-5-5.6-2.1 0-4.5 1.5-6.2 4.4l-5.9 10.1a6.22 6.22 0 0 1-3.4-5.4c0-1.7.8-3.5 2.4-4.8l-1.2-2.2c-2.7 1.9-3.9 4.5-3.9 7 0 3 1.7 5.9 4.8 7.5l-1.1 2c-2.7 4.6-1.1 9.7 4.2 9.7 4.2 0 6.1-1.9 8.7-4.4-.8 2.4.4 4.4 3 4.4 1.5 0 3.4-1 5.2-2.5.2 1.5 1.3 2.5 3.3 2.5 1.8 0 3.8-1.1 5.7-2.8l-1.4 2.4h3.8l5.8-10.1c5.8-7.2 8.4-6.3 6.7-3.5l-4.9 8.5c-1.6 2.8-.5 5.4 2.6 5.4 2 0 4.3-1.4 6.4-3.4-.5 2.1.5 3.4 2.4 3.4 1.8 0 3.9-1.5 5.6-3l-2.1 3.6c-5.1 1.5-8.3 3.6-8.3 6.5 0 3.6 5.6 4.4 8.3-.3l2.9-5c3.2-1 6.3-3 9.5-6.2-.5 5.3 6.5 6.5 10.7 1.1h.8c1.4 0 3.2-.5 4.9-1.5l-2.5 4.4h3.8l5.8-10.1c5.8-7.2 8.4-6.3 6.7-3.5l-4.9 8.5c-1.6 2.8-.5 5.4 2.6 5.4s6.7-3.3 9.8-7c-.1 0-.7-.6-1.2-.8Zm118.6-35.6c-2.3 3.7-4.6 5.5-6.2 5.5-.8 0-1.3-.6-.4-2.1l5.3-9.2c2-3.5 6.1-2.6 4.2.8l-2.9 5Zm-36.2.2c-2.3 3.6-4.5 5.3-6.1 5.3-.8 0-1.3-.6-.4-2.1l5.3-9.2c2-3.5 6.1-2.6 4.2.8l-3 5.2Zm-39.9 13.8c-.8 1.4-2.1 1.2-2.1.2s.9-2.1 3.8-3.2l-1.7 3Zm8-28.5c1.1-1.9 2.4-2.8 3.4-2.8 6 0 1.5 14.4-8.1 12.2h-.8l5.5-9.4Zm77.7 14.1-.3.3c-2.7 3.2-5.4 5.7-7 5.7-.8 0-1.3-.6-.4-2.1l12.8-22.1h-3.8l-5.6 9.6c-.7-1.1-1.9-2-3.5-2-2 0-4.9 1.6-6.5 4.4l-3.7 6.4c-.1 0-.2-.1-.2-.1l-.3.3c-2.7 3.2-5 5.7-6.7 5.7-.8 0-1.3-.6-.4-2.1l5.5-9.6c1.6-2.9.1-4.9-2-4.9-1.6 0-3.3.9-5.2 2.8l1.4-2.5h-3.8l-6 10.4c-.1-.1-.2-.1-.4-.2l-.3.3c-2.7 3.2-5.4 5.7-7 5.7-.8 0-1.3-.6-.4-2.1l6.1-10.7h-2.1c.1-1.6-1.5-3.8-4-3.8-2 0-4.9 1.6-6.5 4.4l-3.7 6.3-.2.2c-2.7 3.2-5.8 5.7-7.4 5.7-.8 0-1.3-.6-.4-2.1l3.8-6.6c1.3-2.3.7-3.6-.5-5.1l-2.1-2.5c-.5-.7-.5-1.5.2-2.2l-2-2.1c-2.1 1.9-2.3 4.1-1 5.8l.3.4c-1.7 2.4-3.9 5.6-6.4 8.5l.3.3c-3.1 3.6-5.8 5.9-8.7 7.2l4.8-8.2h-3.8l-.4.7c-2 3.5-4.3 6-7.2 6-2.6 0-3-2.6-.8-6.4l1.1-1.9c.7.1 1.4.2 2.1.2 13.4 0 19.9-18 8.1-18-2.1 0-4.5 1.5-6.2 4.4l-5.9 10.1a6.22 6.22 0 0 1-3.4-5.4c0-1.7.8-3.5 2.4-4.8l-1.2-2.2c-2.7 1.9-3.9 4.5-3.9 7 0 3 1.7 5.9 4.8 7.5l-1.1 2c-2.7 4.6-2.2 9.7 3.2 9.7 1.6 0 2.9-.5 4.1-1.2l-1 1.7c-5.1 1.6-8.3 3.6-8.3 6.5 0 3.6 5.6 4.4 8.3-.3l2.9-5c3.9-1.2 7.8-3.9 11.9-8.7-.1-.1-.1-.2-.2-.4 1.7-2 3.1-3.9 6-7.7l.5.6c.5.6.7 1.4.2 2.1l-4 6.9c-1.6 2.8-.5 5.4 2.6 5.4 1.9 0 4.3-1.2 6.4-3 0 1.7 1.1 3 3.3 3 1.5 0 3.4-1 5.2-2.5.2 1.5 1.3 2.5 3.3 2.5 1.8 0 3.8-1.1 5.7-2.8l-1.4 2.4h3.8l5.8-10.1c5.8-7.2 8.4-6.3 6.7-3.5l-4.9 8.5c-1.6 2.8-.5 5.4 2.6 5.4 2 0 3.8-1.4 6-3.3-.2 1.9 1 3.3 3.3 3.3 1.5 0 3.4-1 5.2-2.5.2 1.5 1.3 2.5 3.3 2.5 3.1 0 6.7-3.3 9.8-7-.5-.3-1.1-.9-1.6-1.1Zm-112.3-5.3c2.2-3.7 6-3.1 3.8.8l-.5.9c-1.8 3.1-4.3 3-5.7 2.5l2.4-4.2Zm-3 13.6c4.3 0 8.5-3.3 11.7-7-.3-.5-.9-1.1-1.4-1.3l-.3.3c-2.7 3.2-6.2 5.7-8.9 5.7-2.3 0-3.7-1.5-2-4.5l.4-.7c2.4 1 7 .5 9.8-4.4l.5-.9c2-3.5.1-6.1-3-6.1-3 0-5.5 1.6-7.1 4.4l-3.7 6.3s-.1 0-.1-.1l-.3.3c-2.7 3.2-5.4 5.7-7 5.7-.8 0-1.3-.6-.4-2.1l5.4-9.6c1.6-2.9.1-4.9-2-4.9-1.6 0-3.4.9-5.3 2.9l6-10.5h-3.8L233 298.1c-.1-.1-.3-.2-.4-.3l-.3.3c-2.7 3.2-5.4 5.7-7 5.7-.8 0-1.3-.6-.4-2.1l8.1-14.1h3.1l1.1-1.8h-3.1l3.6-6.2h-3.8l-3.6 6.2h-3.4l-1.1 1.8h3.4l-7.6 13.2c-1.6 2.8-.5 5.4 2.6 5.4 1.9 0 3.9-1.2 5.9-3l-1.5 2.6h3.8l5.7-10c5.8-7.3 8.4-6.4 6.8-3.6l-4.9 8.5c-1.6 2.8-.5 5.4 2.6 5.4 2.3 0 4.8-1.8 7.3-4.2.2 2.4 2.2 4.2 5.3 4.2Zm-127.5-13.6c2.2-3.7 6-3.1 3.8.8l-.5.9c-1.8 3.1-4.3 3-5.7 2.5l2.4-4.2Zm23.1 9.2 5.3-9.2c2-3.5 6.1-2.6 4.2.8l-2.9 5.2c-2.3 3.6-4.5 5.3-6.1 5.3-.9-.1-1.4-.6-.5-2.1Zm54-9.2c2.2-3.7 6-3.1 3.8.8l-.5.9c-1.8 3.1-4.2 3-5.7 2.5l2.4-4.2ZM147 302c-.6 2.2.6 4.1 3.1 4.1 1.5 0 3.4-1 5.2-2.5.2 1.5 1.3 2.5 3.3 2.5 2 0 4.2-1.4 6.4-3.3-.4 2 .5 3.3 2.4 3.3 2.1 0 4.4-1.9 6.2-3.6-.4 2 .8 3.6 3.2 3.6 3.1 0 6.7-3.3 9.8-7 0 0-.1-.1-.1-.2 2.1-2.4 3.9-5 5.2-6.8-1.5 3.9-.7 11-4.3 11-1.3 0-1.8-1.4-1.8-1.4l-2.4 1.2s.7 3.1 4.1 3.1c.4 0 .7 0 1.1-.1h.1c2.8-.4 5.5-2.1 7.9-4.2.1 2.5 2 4.3 5.1 4.3 4.3 0 8.5-3.3 11.7-7-.3-.5-.9-1.1-1.4-1.3l-.3.3c-2.7 3.2-6.2 5.7-8.9 5.7-2.3 0-3.7-1.5-2-4.5l.4-.7c2.4 1 7 .5 9.8-4.4l.5-.9c2-3.5.1-6.1-3-6.1s-5.5 1.6-7.1 4.4l-3.7 6.3h-.1l-.3.3c-1.3 1.6-2.9 2.9-4.5 4.1 1.2-3.6.9-9.1 3.3-14l-2.8-1.5c-1.6 2.1-5 7.1-8.4 11.1l.1.1-.1.2c-2.7 3.2-5.4 5.7-7 5.7-.8 0-1.3-.6-.4-2.1l8.1-14.1h-3.8l-6.7 11.7c-2.9 2.6-5.1 4.1-5.8 3.7-.9-.4 0-1.8.5-2.6l7.4-12.9h-3.8l-6 10.4c-.1-.1-.2-.1-.3-.2l-.3.3c-2.7 3.2-5.4 5.7-7 5.7-.8 0-1.3-.6-.4-2.1l6.1-10.7h-2.1c.1-1.6-1.5-3.8-4-3.8-2 0-4.9 1.6-6.5 4.4l-3.8 6.6c-.2-.1-.4-.3-.6-.4l-.3.3c-2.7 3.2-5.9 5.7-8.5 5.7-2.3 0-3.7-1.5-2-4.5l3.9-6.8c2.2-3.7 6-3.1 3.8.8l-.5.9h3.1l.5-.9c2-3.5.1-6.1-3-6.1s-5.1 1.6-6.7 4.4l-3.8 6.4c-.1-.1-.2-.1-.3-.2l-.3.3c-2.7 3.2-5.9 5.7-8.6 5.7-2.3 0-3.7-1.5-2-4.5l.4-.7c2.4 1 7 .5 9.8-4.4l.5-.9c2-3.5.1-6.1-3-6.1s-5.5 1.6-7.1 4.4l-4 6.8c-2.4 4-.3 7.7 4.1 7.7 3.3 0 6-2 8.8-4.6-.1 2.6 1.9 4.6 5.1 4.6 3.4.1 6.1-1.7 8.8-4Zm-36.9-14 3.1-5.2c2.8-4.8 6.3-2 4.4 1.6-1.5 2.7-3.6 3.6-7.5 3.6Zm-4.1 17.3c-2.3 0-4-.5-5.4-1.3.7-.8 1.3-1.7 1.9-2.7l6.4-11 1 .1c8.8 1.8 5.3 14.9-3.9 14.9Zm9.4-15.5c7.6-2.6 8.2-12.1.7-12.1-2.1 0-4.5 1.5-6.2 4.4l-10.2 17.6a8 8 0 0 1-1.5 2.1c-2.6-3.6-1.9-9 1.8-11.3l-1.5-1.9c-7.9 5-5.6 19.6 7.6 19.6 11.3 0 16.5-13.6 9.3-18.4Z"/></svg>