<svg width="18" height="17" viewBox="0 0 18 17" fill="none" xmlns="http://www.w3.org/2000/svg">
<path d="M8.9 17C8.6 17 8.3 16.9 8.1 16.6C2.7 10.5 1.4 9.1 1.1 8.7C0.4 7.8 0 6.6 0 5.4C0 2.4 2.4 0 5.5 0C6.8 0 8 0.5 9 1.3C10 0.5 11.3 0 12.5 0C15.5 0 18 2.4 18 5.4C18 6.7 17.5 7.9 16.7 8.8L9.7 16.7C9.5 16.9 9.3 17 8.9 17ZM2.9 7.5C3.2 7.9 6.4 11.5 9 14.4L15.2 7.4C15.7 6.9 15.9 6.2 15.9 5.4C15.9 3.6 14.4 2.1 12.6 2.1C11.6 2.1 10.6 2.6 9.9 3.4C9.6 3.7 9.3 3.8 9 3.8C8.7 3.8 8.4 3.6 8.2 3.4C7.5 2.6 6.5 2.1 5.5 2.1C3.7 2.1 2.2 3.6 2.2 5.4C2.1 6.3 2.5 7 2.9 7.5C2.8 7.5 2.8 7.5 2.9 7.5Z" fill="black"/>
</svg>
