<svg width="19" height="19" viewBox="0 0 19 19" fill="none" xmlns="http://www.w3.org/2000/svg">
<path d="M18.5 17.0083L14.8 13.3287C15.8 12.0359 16.5 10.3453 16.5 8.4558C16.5 4.08011 12.9 0.5 8.5 0.5C4.1 0.5 0.5 4.17956 0.5 8.55525C0.5 12.9309 4.1 16.511 8.5 16.511C10.3 16.511 12 15.9144 13.4 14.8204L17.1 18.5L18.5 17.0083ZM8.5 14.5221C5.2 14.5221 2.5 11.837 2.5 8.55525C2.5 5.27348 5.2 2.5884 8.5 2.5884C11.8 2.5884 14.5 5.27348 14.5 8.55525C14.5 11.837 11.8 14.5221 8.5 14.5221Z" fill="black"/>
</svg>
